<svg width="32" height="32" viewBox="0 0 32 32" fill="none" xmlns="http://www.w3.org/2000/svg">
  <rect width="32" height="32" rx="8" fill="url(#paint0_linear)"/>
  <path d="M10 22V10H15.5C17.433 10 19 11.567 19 13.5C19 14.8333 18.25 15.9167 17.125 16.4167C18.5 16.9167 19.5 18.25 19.5 19.75C19.5 21.5449 18.0449 23 16.25 23H10V22ZM12 15H15.5C16.3284 15 17 14.3284 17 13.5C17 12.6716 16.3284 12 15.5 12H12V15ZM12 21H16.25C17.0784 21 17.75 20.3284 17.75 19.5C17.75 18.6716 17.0784 18 16.25 18H12V21Z" fill="white"/>
  <defs>
    <linearGradient id="paint0_linear" x1="0" y1="0" x2="32" y2="32" gradientUnits="userSpaceOnUse">
      <stop stop-color="#2563EB"/>
      <stop offset="1" stop-color="#4F46E5"/>
    </linearGradient>
  </defs>
</svg>
